# xmcd
#
# Track frame offsets:
#  150
#  16505
#  32110
#  50500
#  71526
#  86548
#  113100
#  124868
#  140122
#  172288
#  189159
#  209891
#
# Disc length: 2989 seconds
#
# Revision: 0
# Processed by: cddbd v1.5.2PL0 Copyright (c) Steve Scherf et al.
# Submitted via: Collectorz.com_Music_Collector 6.11
#
DISCID=ae0bab0c
DTITLE=Steve Earle - Berlin 2003 [CD2)
DYEAR=2003
DGENRE=Country/Rock
TTITLE0=Go Amanda
TTITLE1=John Walker's blues
TTITLE2=Jerusalem
TTITLE3=Transcendental blues
TTITLE4=NYC
TTITLE5=The unrepentant
TTITLE6=Hardcore troubadour
TTITLE7=The devil's right hand
TTITLE8=Christmas in Washington
TTITLE9=Time has come today
TTITLE10=Get together
TTITLE11=What so funny 'bout peace, love and understanding
EXTD=
EXTT0=
EXTT1=
EXTT2=
EXTT3=
EXTT4=
EXTT5=
EXTT6=
EXTT7=
EXTT8=
EXTT9=
EXTT10=
EXTT11=
PLAYORDER=
